# Blender 3.4.1
# www.blender.org
mtllib KELINCI 2.mtl
o KELINCI_2
v 0.284986 7.017663 0.532773
v 0.284987 8.065701 0.532773
v 0.220728 6.882387 0.311905
v 0.220728 8.200977 0.311905
v 0.669702 7.017663 0.532773
v 0.669703 8.065701 0.532773
v 0.733961 6.882387 0.311905
v 0.733961 8.200977 0.311905
v 0.220728 6.882387 0.532773
v 0.220728 8.200977 0.532773
v 0.733961 8.200977 0.532773
v 0.733961 6.882387 0.532773
v 0.284986 7.017663 0.478545
v 0.284987 8.065701 0.478545
v 0.669703 8.065701 0.478545
v 0.669702 7.017663 0.478545
v -0.454385 5.049848 1.063178
v -0.454385 5.918663 1.063179
v -0.454385 5.049848 0.194365
v -0.454385 5.918663 0.194365
v 0.414429 5.049849 1.063179
v 0.414430 5.918663 1.063179
v 0.414429 5.049849 0.194365
v 0.414429 5.918662 0.194365
v -1.030351 4.932621 0.725783
v -1.030351 6.953368 0.725783
v -1.030351 4.932621 -1.294963
v -1.030351 6.953368 -1.294963
v 0.990395 4.932621 0.725783
v 0.990396 6.953368 0.725782
v 0.990395 4.932621 -1.294963
v 0.990396 6.953368 -1.294963
v -0.034726 5.903851 0.840628
v -0.034726 5.903851 1.226640
v 0.132421 5.614342 0.840628
v 0.132421 5.614342 1.226640
v -0.201874 5.614342 0.840628
v -0.201874 5.614342 1.226640
v -0.257624 5.572190 0.762794
v 0.217668 5.572190 0.762794
v -0.446034 5.257827 1.100934
v -0.446035 5.910312 1.100934
v -0.446034 5.257827 0.248821
v -0.446035 5.910312 0.248821
v 0.406078 5.257827 1.100934
v 0.406079 5.910312 1.100934
v 0.406078 5.257827 0.248821
v 0.406079 5.910312 0.248821
v -0.257623 5.257827 0.762794
v 0.217668 5.257828 0.762794
v 0.217668 5.257828 1.100934
v 0.217668 5.572190 1.100934
v -0.257624 5.572190 1.100934
v -0.257623 5.257827 1.100934
v -0.009771 4.955287 1.133127
v -0.009771 5.264931 1.133127
v -0.009771 4.955287 1.052484
v -0.009771 5.264931 1.052484
v 0.147935 4.955288 1.133127
v 0.147935 5.264931 1.133127
v 0.147935 4.955288 1.052484
v 0.147935 5.264931 1.052484
v -0.194696 4.955288 1.133128
v -0.194697 5.264932 1.133128
v -0.194696 4.955288 1.052484
v -0.194697 5.264932 1.052484
v -0.036991 4.955288 1.133127
v -0.036991 5.264931 1.133127
v -0.036991 4.955288 1.052484
v -0.036991 5.264931 1.052484
v -0.576019 6.180368 0.777752
v -0.576019 6.478329 0.777752
v -0.576019 6.180368 0.479792
v -0.576019 6.478329 0.479792
v -0.278058 6.180368 0.777752
v -0.278058 6.478329 0.777752
v -0.278058 6.180368 0.479792
v -0.278058 6.478329 0.479792
v 0.238103 6.180368 0.777752
v 0.238103 6.478329 0.777752
v 0.238103 6.180368 0.479792
v 0.238103 6.478329 0.479792
v 0.536063 6.180369 0.777752
v 0.536063 6.478329 0.777752
v 0.536063 6.180369 0.479792
v 0.536063 6.478329 0.479792
v -0.644174 7.017663 0.532773
v -0.644174 8.065701 0.532773
v -0.708432 6.882386 0.311905
v -0.708432 8.200977 0.311905
v -0.259458 7.017663 0.532773
v -0.259458 8.065701 0.532773
v -0.195200 6.882387 0.311905
v -0.195200 8.200977 0.311905
v -0.708432 6.882386 0.532773
v -0.708432 8.200977 0.532773
v -0.195200 8.200977 0.532773
v -0.195200 6.882387 0.532773
v -0.644174 7.017663 0.478545
v -0.644174 8.065701 0.478545
v -0.259458 8.065701 0.478545
v -0.259458 7.017663 0.478545
v -0.780401 2.354481 0.048873
v -0.436873 4.849783 -0.104594
v -0.780402 2.354481 -0.618058
v -0.436873 4.849783 -0.464591
v 0.713098 2.354481 0.048873
v 0.369569 4.849783 -0.104594
v 0.713098 2.354481 -0.618058
v 0.369569 4.849783 -0.464591
v -0.780401 4.344596 0.048873
v -0.780401 4.344596 -0.618058
v 0.713097 4.344596 -0.618058
v 0.713097 4.344596 0.048873
v -1.244659 4.344595 0.048873
v -1.244660 4.849783 0.048873
v -1.244660 4.849783 -0.618058
v -1.244659 4.344595 -0.618058
v 1.161244 4.849782 -0.618058
v 1.161244 4.849782 0.048873
v 1.161243 4.344595 -0.618058
v 1.161243 4.344595 0.048873
v -0.806416 4.344596 0.048873
v -0.806416 4.344596 -0.618058
v -0.806415 4.849782 -0.618058
v -0.806415 4.849782 0.048873
v 0.732465 4.849783 0.048873
v 0.732465 4.849783 -0.618058
v 0.732465 4.344596 -0.618058
v 0.732465 4.344596 0.048873
v -1.244660 2.586259 0.048873
v -1.244660 2.586259 -0.618058
v -0.806416 2.586259 0.048873
v 1.161243 2.586259 -0.618058
v 1.161243 2.586259 0.048873
v 0.732465 2.586259 -0.618058
v -0.806416 2.586259 -0.618058
v 0.732465 2.586259 0.048873
v 0.923237 4.849783 0.048873
v 0.923237 4.344596 -0.618058
v 0.923237 4.849783 -0.618058
v 0.923237 4.344596 0.048873
v 0.923237 2.586259 -0.618058
v 0.923237 2.586259 0.048873
v -1.025537 4.344596 0.048873
v -1.025537 4.849783 -0.618058
v -1.025537 4.344596 -0.618058
v -1.025537 4.849783 0.048873
v -1.025538 2.586260 0.048873
v -1.025538 2.586260 -0.618058
v -1.244659 2.295292 0.048873
v -1.244659 2.295292 -0.618058
v -1.025537 2.295292 0.048873
v 1.161243 2.295291 -0.618058
v 1.161243 2.295291 0.048873
v 0.923237 2.295292 -0.618058
v 0.923237 2.295292 0.048873
v -1.025537 2.295292 -0.618058
v -0.780401 1.789191 0.048873
v -0.780401 1.789191 -0.618058
v 0.713097 1.789192 0.048873
v 0.713097 1.789192 -0.618058
v 0.215264 2.354481 -0.618058
v -0.282568 2.354481 -0.618058
v -0.236772 4.849783 -0.464591
v 0.169467 4.849783 -0.464591
v -0.282568 2.354481 0.048873
v 0.215264 2.354481 0.048873
v 0.169467 4.849783 -0.104594
v -0.236772 4.849783 -0.104594
v 0.215264 4.344596 0.048873
v -0.282568 4.344596 0.048873
v -0.282568 4.344596 -0.618058
v 0.215264 4.344596 -0.618058
v 0.215264 1.789191 -0.618058
v -0.282568 1.789191 -0.618058
v -0.282568 1.789191 0.048873
v 0.215264 1.789191 0.048873
v -0.780402 0.208987 -0.618058
v -0.780402 0.208987 0.048873
v -0.282569 0.208986 -0.618058
v 0.713098 0.208986 0.048873
v 0.713098 0.208986 -0.618058
v 0.215263 0.208987 0.048873
v 0.215264 0.208987 -0.618058
v -0.282569 0.208986 0.048873
v -0.780401 4.849782 0.048873
v -0.780401 4.849782 -0.618058
v 0.215264 4.849782 -0.618058
v 0.713098 4.849783 -0.618058
v 0.713098 4.849783 0.048873
v -0.282569 4.849783 0.048873
v -0.282569 4.849783 -0.618058
v 0.215264 4.849782 0.048873
v 0.169467 4.939567 -0.464591
v 0.169467 4.939567 -0.104594
v -0.236772 4.939567 -0.464591
v -0.236772 4.939567 -0.104594
v -0.436873 4.939567 -0.104594
v -0.436873 4.939567 -0.464591
v 0.369569 4.939568 -0.464591
v 0.369569 4.939568 -0.104594
v 0.732465 2.821534 -0.618058
v 0.732465 2.821534 0.048873
v 1.161243 2.821535 0.048873
v 1.161243 2.821535 -0.618058
v 0.923238 2.821535 -0.618058
v 0.923237 2.821535 0.048873
v 0.732465 2.854016 0.048873
v 1.161243 2.854017 -0.618058
v 0.732465 2.854016 -0.618058
v 1.161243 2.854017 0.048873
v 0.923237 2.854017 -0.618058
v 0.923237 2.854017 0.048873
v -0.781819 2.349220 0.049312
v -0.437838 4.850849 -0.104357
v -0.781819 2.349220 -0.618497
v -0.437838 4.850849 -0.464828
v 0.713647 2.349221 0.049312
v 0.369666 4.850849 -0.104357
v 0.713647 2.349221 -0.618497
v 0.369666 4.850849 -0.464828
v -0.781819 4.330717 0.049312
v -0.781819 4.330717 -0.618497
v 0.713647 4.330717 -0.618497
v 0.713647 4.330717 0.049312
v -1.246689 4.330717 0.049312
v -1.246689 4.850850 0.049312
v -1.246689 4.850850 -0.618497
v -1.246689 4.330717 -0.618497
v 1.162384 4.850849 -0.618497
v 1.162384 4.850849 0.049312
v 1.162384 4.330717 -0.618497
v 1.162384 4.330717 0.049312
v -0.805028 4.330717 0.049312
v -0.805028 4.330717 -0.618497
v -0.805028 4.850849 -0.618497
v -0.805028 4.850849 0.049312
v 0.730201 4.850849 0.049312
v 0.730200 4.850849 -0.618497
v 0.730200 4.330717 -0.618497
v 0.730200 4.330717 0.049312
v 0.924064 4.850849 0.049312
v 0.924064 4.330717 -0.618497
v 0.924064 4.850849 -0.618497
v 0.924064 4.330717 0.049312
v -1.027278 4.330717 0.049312
v -1.027278 4.850849 -0.618497
v -1.027278 4.330717 -0.618497
v -1.027278 4.850849 0.049312
v 0.215158 2.349221 -0.618497
v -0.283330 2.349221 -0.618497
v -0.237473 4.850849 -0.464828
v 0.169301 4.850849 -0.464828
v -0.283330 2.349221 0.049312
v 0.215158 2.349221 0.049312
v 0.169301 4.850849 -0.104357
v -0.237473 4.850849 -0.104357
v 0.215158 4.330717 0.049312
v -0.283330 4.330717 0.049312
v -0.283330 4.330717 -0.618497
v 0.215158 4.330717 -0.618497
v -0.781819 4.850849 0.049312
v -0.781819 4.850849 -0.618497
v 0.215157 4.850849 -0.618497
v 0.713648 4.850849 -0.618497
v 0.713647 4.850849 0.049312
v -0.283330 4.850849 0.049312
v -0.283330 4.850849 -0.618497
v 0.215157 4.850849 0.049312
v -1.246688 3.931906 0.049312
v -1.246688 3.931906 -0.618497
v 1.162384 3.931906 -0.618497
v 1.162384 3.931906 0.049312
v -0.805028 3.931907 0.049312
v -0.805028 3.931907 -0.618497
v 0.730200 3.931906 -0.618497
v 0.730200 3.931906 0.049312
v 0.924063 3.931906 -0.618497
v 0.924063 3.931906 0.049312
v -1.027278 3.931906 0.049312
v -1.027278 3.931906 -0.618497
v -0.781712 2.353180 0.049264
v -0.781712 2.353180 -0.618449
v 0.713538 2.353180 0.049264
v 0.713538 2.353180 -0.618449
v -0.781712 1.787228 0.049264
v -0.781712 1.787228 -0.618449
v 0.713538 1.787228 0.049264
v 0.713538 1.787228 -0.618449
v 0.206157 2.353180 -0.618449
v -0.274332 2.353180 -0.618449
v -0.274332 2.353180 0.049264
v 0.206157 2.353180 0.049264
v 0.206157 1.787228 -0.618449
v -0.274332 1.787228 -0.618449
v -0.274332 1.787228 0.049264
v 0.206157 1.787228 0.049264
v -0.781712 0.541790 0.049264
v -0.781712 0.541790 -0.618449
v -0.274332 0.541789 -0.618449
v -0.274332 0.541789 0.049264
v 0.713538 0.537294 0.049264
v 0.713538 0.537294 -0.618449
v 0.206157 0.537293 -0.618449
v 0.206156 0.537293 0.049264
v 0.713538 2.285805 -0.618449
v -0.781711 2.285805 -0.618449
v -0.781711 2.285805 0.049264
v 0.713538 2.285805 0.049264
v 0.110953 2.296226 0.049264
v -0.179128 2.296226 0.049264
v -0.274331 2.285805 -0.618449
v 0.206157 2.285805 -0.618449
v 0.206157 2.285805 0.049264
v -0.179128 2.342759 0.049264
v 0.110953 2.342759 0.049264
v -0.274331 2.285805 0.049264
v -0.785076 -0.029449 0.056909
v -0.785076 0.489193 0.056909
v -0.785076 -0.029449 -0.627510
v -0.785077 0.489193 -0.627510
v -0.266434 -0.029449 0.056909
v -0.266434 0.489193 0.056909
v -0.266434 -0.029449 -0.627510
v -0.266434 0.489193 -0.627510
v -0.785076 0.229872 0.056909
v -0.785076 0.229872 -0.627510
v -0.266435 0.229872 -0.627510
v -0.266435 0.229872 0.056909
v -0.266434 0.229872 0.600875
v -0.266434 -0.029449 0.600875
v -0.785077 -0.029449 0.600875
v -0.785076 0.229872 0.600875
v -0.439315 -0.029449 -0.627510
v -0.612196 -0.029449 -0.627510
v -0.612196 0.489193 -0.627510
v -0.439315 0.489194 -0.627510
v -0.612196 -0.029449 0.056909
v -0.439315 -0.029449 0.056909
v -0.439315 0.489194 0.056909
v -0.612196 0.489193 0.056909
v -0.439315 0.229872 0.056909
v -0.612196 0.229872 0.056909
v -0.612196 0.229872 -0.627510
v -0.439315 0.229872 -0.627510
v -0.612195 -0.029449 0.600875
v -0.439315 -0.029449 0.600875
v -0.439315 0.229872 0.600875
v -0.612196 0.229872 0.600875
v -0.785076 0.040125 -0.627510
v -0.266434 0.040125 -0.627510
v -0.266434 0.040125 0.056909
v -0.785076 0.040125 0.056909
v -0.266434 0.040125 0.600875
v -0.785076 0.040125 0.600875
v -0.439315 0.040125 0.600875
v -0.612196 0.040125 0.600875
v -0.612196 0.040125 -0.627510
v -0.439315 0.040125 -0.627510
v 0.208578 -0.029449 0.056909
v 0.208578 0.489193 0.056909
v 0.208578 -0.029449 -0.627510
v 0.208578 0.489193 -0.627510
v 0.727220 -0.029449 0.056909
v 0.727220 0.489193 0.056909
v 0.727220 -0.029449 -0.627510
v 0.727220 0.489193 -0.627510
v 0.208578 0.229872 0.056909
v 0.208578 0.229872 -0.627510
v 0.727220 0.229873 -0.627510
v 0.727220 0.229873 0.056909
v 0.727220 0.229873 0.600875
v 0.727220 -0.029449 0.600875
v 0.208577 -0.029449 0.600875
v 0.208578 0.229872 0.600875
v 0.554339 -0.029449 -0.627510
v 0.381458 -0.029449 -0.627510
v 0.381458 0.489194 -0.627510
v 0.554339 0.489194 -0.627510
v 0.381458 -0.029449 0.056909
v 0.554339 -0.029449 0.056909
v 0.554339 0.489194 0.056909
v 0.381458 0.489194 0.056909
v 0.554339 0.229873 0.056909
v 0.381458 0.229872 0.056909
v 0.381458 0.229872 -0.627510
v 0.554339 0.229873 -0.627510
v 0.381459 -0.029449 0.600875
v 0.554339 -0.029449 0.600875
v 0.554339 0.229873 0.600875
v 0.381458 0.229872 0.600875
v 0.208578 0.040125 -0.627510
v 0.727220 0.040125 -0.627510
v 0.727220 0.040125 0.056909
v 0.208578 0.040125 0.056909
v 0.727220 0.040125 0.600875
v 0.208578 0.040125 0.600875
v 0.554339 0.040125 0.600875
v 0.381458 0.040125 0.600875
v 0.381458 0.040125 -0.627510
v 0.554339 0.040125 -0.627510
v -0.170308 4.201217 0.080740
v -0.170308 4.309389 0.080740
v -0.170308 4.201217 -0.027431
v -0.170308 4.309389 -0.027431
v 0.064863 4.201217 0.080740
v 0.064863 4.309389 0.080740
v 0.064863 4.201217 -0.027431
v 0.064863 4.309389 -0.027431
v -0.532721 4.709877 0.097124
v -0.532721 4.850815 0.097124
v -0.532721 4.709877 -0.043814
v -0.532721 4.850815 -0.043814
v -0.391783 4.709877 0.097124
v -0.391783 4.850815 0.097124
v -0.391783 4.709877 -0.043814
v -0.391783 4.850815 -0.043814
v -0.466470 4.568964 0.097124
v -0.466470 4.709901 0.097124
v -0.466470 4.568964 -0.043814
v -0.466470 4.709901 -0.043814
v -0.325532 4.568964 0.097124
v -0.325532 4.709901 0.097124
v -0.325532 4.568964 -0.043814
v -0.325532 4.709901 -0.043814
v -0.389822 4.427864 0.097124
v -0.389822 4.568802 0.097124
v -0.389822 4.427864 -0.043814
v -0.389822 4.568802 -0.043814
v -0.248884 4.427864 0.097124
v -0.248884 4.568802 0.097124
v -0.248884 4.427864 -0.043814
v -0.248884 4.568802 -0.043814
v -0.311747 4.287052 0.097124
v -0.311747 4.427989 0.097124
v -0.311747 4.287052 -0.043814
v -0.311747 4.427989 -0.043814
v -0.170809 4.287052 0.097124
v -0.170809 4.427989 0.097124
v -0.170809 4.287052 -0.043814
v -0.170809 4.427989 -0.043814
v 0.065322 4.287038 0.097124
v 0.065322 4.427975 0.097124
v 0.065322 4.287038 -0.043814
v 0.065322 4.427975 -0.043814
v 0.206260 4.287038 0.097124
v 0.206260 4.427975 0.097124
v 0.206260 4.287038 -0.043814
v 0.206260 4.427975 -0.043814
v 0.152458 4.427851 0.097124
v 0.152458 4.568789 0.097124
v 0.152458 4.427851 -0.043814
v 0.152458 4.568789 -0.043814
v 0.293397 4.427851 0.097124
v 0.293397 4.568789 0.097124
v 0.293397 4.427851 -0.043814
v 0.293397 4.568789 -0.043814
v 0.236110 4.568665 0.097124
v 0.236110 4.709602 0.097124
v 0.236110 4.568665 -0.043814
v 0.236110 4.709602 -0.043814
v 0.377048 4.568665 0.097124
v 0.377048 4.709602 0.097124
v 0.377048 4.568665 -0.043814
v 0.377048 4.709602 -0.043814
v 0.319993 4.709960 0.097124
v 0.319993 4.850898 0.097124
v 0.319993 4.709960 -0.043814
v 0.319993 4.850898 -0.043814
v 0.460931 4.709960 0.097124
v 0.460931 4.850898 0.097124
v 0.460931 4.709960 -0.043814
v 0.460931 4.850898 -0.043814
v 0.815073 7.859539 0.423387
v 0.836408 7.805451 0.422723
v 0.812039 7.858657 0.397668
v 0.833374 7.804569 0.397004
v 0.804398 7.855946 0.373057
v 0.825733 7.801858 0.372393
v 0.792444 7.851507 0.350499
v 0.813779 7.797419 0.349835
v 0.776637 7.845514 0.330862
v 0.797971 7.791425 0.330198
v 0.757581 7.838193 0.314899
v 0.778915 7.784104 0.314236
v 0.736013 7.829830 0.303226
v 0.757347 7.775740 0.302562
v 0.712757 7.820741 0.296290
v 0.734093 7.766653 0.295626
v 0.688712 7.811280 0.294357
v 0.710047 7.757192 0.293693
v 0.664798 7.801808 0.297503
v 0.686133 7.747720 0.296839
v 0.641936 7.792692 0.305605
v 0.663271 7.738603 0.304941
v 0.621003 7.784277 0.318354
v 0.642339 7.730190 0.317689
v 0.602805 7.776893 0.335257
v 0.624140 7.722804 0.334594
v 0.588042 7.770818 0.355668
v 0.609376 7.716730 0.355004
v 0.577278 7.766288 0.378801
v 0.598613 7.712200 0.378137
v 0.570931 7.763479 0.403765
v 0.592267 7.709391 0.403101
v 0.569241 7.762495 0.429604
v 0.590576 7.708407 0.428940
v 0.572275 7.763377 0.455323
v 0.593610 7.709289 0.454660
v 0.579914 7.766087 0.479935
v 0.601250 7.711998 0.479271
v 0.591869 7.770525 0.502493
v 0.613205 7.716437 0.501829
v 0.607677 7.776520 0.522130
v 0.629012 7.722433 0.521466
v 0.626732 7.783841 0.538092
v 0.648068 7.729753 0.537428
v 0.648302 7.792206 0.549766
v 0.669636 7.738117 0.549102
v 0.671556 7.801293 0.556701
v 0.692891 7.747204 0.556038
v 0.695603 7.810755 0.558634
v 0.716938 7.756666 0.557970
v 0.719515 7.820224 0.555489
v 0.740851 7.766138 0.554825
v 0.742379 7.829343 0.547386
v 0.763713 7.775254 0.546722
v 0.763309 7.837755 0.534639
v 0.784645 7.783667 0.533974
v 0.781508 7.845141 0.517734
v 0.802844 7.791053 0.517071
v 0.796272 7.851215 0.497323
v 0.817606 7.797126 0.496660
v 0.807035 7.855745 0.474191
v 0.828370 7.801656 0.473527
v 0.813383 7.858555 0.449226
v 0.834719 7.804468 0.448562
v 0.815070 7.727002 0.423387
v 0.836405 7.672914 0.422723
v 0.812036 7.726120 0.397668
v 0.833371 7.672032 0.397004
v 0.804395 7.723409 0.373057
v 0.825730 7.669321 0.372393
v 0.792440 7.718970 0.350499
v 0.813776 7.664882 0.349835
v 0.776634 7.712977 0.330862
v 0.797968 7.658888 0.330198
v 0.757578 7.705657 0.314899
v 0.778912 7.651567 0.314236
v 0.736010 7.697292 0.303226
v 0.757344 7.643203 0.302562
v 0.712754 7.688203 0.296290
v 0.734090 7.634116 0.295626
v 0.688709 7.678742 0.294357
v 0.710044 7.624655 0.293693
v 0.664795 7.669271 0.297503
v 0.686130 7.615183 0.296839
v 0.641933 7.660155 0.305605
v 0.663268 7.606066 0.304941
v 0.621000 7.651741 0.318353
v 0.642336 7.597653 0.317689
v 0.602802 7.644356 0.335257
v 0.624137 7.590267 0.334594
v 0.588039 7.638281 0.355668
v 0.609373 7.584192 0.355004
v 0.577275 7.633751 0.378801
v 0.598610 7.579663 0.378137
v 0.570928 7.630942 0.403765
v 0.592264 7.576854 0.403101
v 0.569238 7.629958 0.429604
v 0.590573 7.575870 0.428940
v 0.572272 7.630840 0.455323
v 0.593607 7.576752 0.454660
v 0.579911 7.633550 0.479935
v 0.601247 7.579462 0.479271
v 0.591866 7.637989 0.502493
v 0.613202 7.583900 0.501829
v 0.607674 7.643983 0.522130
v 0.629009 7.589895 0.521466
v 0.626729 7.651304 0.538092
v 0.648065 7.597216 0.537428
v 0.648299 7.659668 0.549766
v 0.669633 7.605580 0.549102
v 0.671553 7.668756 0.556701
v 0.692888 7.614667 0.556038
v 0.695600 7.678218 0.558634
v 0.716935 7.624129 0.557970
v 0.719512 7.687687 0.555489
v 0.740848 7.633601 0.554825
v 0.742376 7.696806 0.547386
v 0.763710 7.642717 0.546722
v 0.763306 7.705218 0.534639
v 0.784642 7.651130 0.533974
v 0.781505 7.712604 0.517734
v 0.802841 7.658516 0.517070
v 0.796269 7.718678 0.497323
v 0.817603 7.664589 0.496660
v 0.807032 7.723208 0.474191
v 0.828367 7.669119 0.473527
v 0.813380 7.726018 0.449226
v 0.834716 7.671931 0.448562
vn -1.0000 -0.0000 -0.0000
vn -0.0000 -0.0000 -1.0000
vn 1.0000 -0.0000 -0.0000
vn -0.0000 1.0000 -0.0000
vn -0.0000 -1.0000 -0.0000
vn -0.0000 -0.0000 1.0000
vn 0.8660 0.5000 -0.0000
vn -0.8660 0.5000 -0.0000
vn 0.9299 0.3671 -0.0226
vn 0.9299 0.3671 -0.0248
vn 0.9064 0.3602 -0.2208
vn 0.9068 0.3604 -0.2186
vn 0.8475 0.3393 -0.4082
vn 0.8484 0.3396 -0.4061
vn 0.7556 0.3052 -0.5796
vn 0.7568 0.3056 -0.5779
vn 0.6342 0.2591 -0.7285
vn 0.6356 0.2596 -0.7271
vn 0.4884 0.2031 -0.8487
vn 0.4898 0.2036 -0.8477
vn 0.3247 0.1396 -0.9355
vn 0.3259 0.1400 -0.9350
vn 0.1511 0.0717 -0.9859
vn 0.1518 0.0720 -0.9858
vn -0.0253 0.0023 -0.9997
vn -0.0254 0.0022 -0.9997
vn -0.2013 -0.0674 -0.9772
vn -0.2022 -0.0678 -0.9770
vn -0.3728 -0.1358 -0.9179
vn -0.3741 -0.1363 -0.9173
vn -0.5321 -0.1998 -0.8228
vn -0.5335 -0.2004 -0.8217
vn -0.6716 -0.2564 -0.6952
vn -0.6729 -0.2569 -0.6937
vn -0.7850 -0.3030 -0.5404
vn -0.7861 -0.3034 -0.5385
vn -0.8678 -0.3378 -0.3644
vn -0.8685 -0.3381 -0.3624
vn -0.9167 -0.3595 -0.1743
vn -0.9171 -0.3596 -0.1721
vn -0.9299 -0.3671 0.0225
vn -0.9299 -0.3671 0.0248
vn -0.9068 -0.3604 0.2186
vn -0.9064 -0.3602 0.2208
vn -0.8484 -0.3396 0.4061
vn -0.8475 -0.3393 0.4082
vn -0.7567 -0.3056 0.5779
vn -0.7556 -0.3052 0.5796
vn -0.6356 -0.2596 0.7271
vn -0.6342 -0.2591 0.7285
vn -0.4898 -0.2036 0.8477
vn -0.4884 -0.2031 0.8487
vn -0.3259 -0.1400 0.9350
vn -0.3247 -0.1396 0.9355
vn -0.1518 -0.0720 0.9858
vn -0.1511 -0.0717 0.9859
vn 0.0254 -0.0022 0.9997
vn 0.0253 -0.0023 0.9997
vn 0.2022 0.0678 0.9770
vn 0.2013 0.0674 0.9772
vn 0.3741 0.1363 0.9173
vn 0.3728 0.1358 0.9179
vn 0.5335 0.2004 0.8217
vn 0.5321 0.1998 0.8228
vn 0.6729 0.2569 0.6937
vn 0.6715 0.2564 0.6952
vn 0.7861 0.3034 0.5385
vn 0.7850 0.3030 0.5404
vn 0.8685 0.3381 0.3624
vn 0.8678 0.3378 0.3645
vn 0.3669 -0.9302 -0.0114
vn 0.9171 0.3596 0.1721
vn 0.9167 0.3595 0.1744
vn -0.3669 0.9302 0.0114
vn 0.3247 0.1395 -0.9355
vn -0.6715 -0.2564 -0.6952
vn -0.3247 -0.1395 0.9355
vn 0.7861 0.3035 0.5385
vt 0.400648 0.974352
vt 0.599352 0.974352
vt 0.375000 0.250000
vt 0.125000 0.500000
vt 0.625000 0.250000
vt 0.875000 0.500000
vt 0.400648 0.775648
vt 0.599352 0.775648
vt 0.375000 0.500000
vt 0.625000 0.500000
vt 0.375000 0.000000
vt 0.125000 0.750000
vt 0.375000 1.000000
vt 0.625000 0.000000
vt 0.875000 0.750000
vt 0.625000 1.000000
vt 0.625000 0.750000
vt 0.375000 0.750000
vt 0.400648 0.974352
vt 0.599352 0.974352
vt 0.599352 0.775648
vt 0.400648 0.775648
vt 0.375000 0.000000
vt 0.375000 1.000000
vt 0.125000 0.750000
vt 0.625000 0.000000
vt 0.625000 1.000000
vt 0.875000 0.750000
vt 0.375000 0.250000
vt 0.125000 0.500000
vt 0.625000 0.250000
vt 0.875000 0.500000
vt 0.375000 0.750000
vt 0.625000 0.750000
vt 0.375000 0.500000
vt 0.625000 0.500000
vt 0.375000 0.000000
vt 0.375000 1.000000
vt 0.125000 0.750000
vt 0.625000 0.000000
vt 0.625000 1.000000
vt 0.875000 0.750000
vt 0.375000 0.250000
vt 0.125000 0.500000
vt 0.625000 0.250000
vt 0.875000 0.500000
vt 0.375000 0.750000
vt 0.625000 0.750000
vt 0.375000 0.500000
vt 0.625000 0.500000
vt 1.000000 0.500000
vt -0.000000 0.500000
vt 0.750000 0.490000
vt 1.000000 1.000000
vt 0.250000 0.490000
vt -0.000000 1.000000
vt 0.666667 0.500000
vt 0.957846 0.130000
vt 0.666667 1.000000
vt 0.457846 0.130000
vt 0.333333 0.500000
vt 0.542154 0.130000
vt 0.042154 0.130000
vt 0.333333 1.000000
vt 0.875000 0.500000
vt 0.625000 0.250000
vt 0.625000 0.500000
vt 0.375000 0.000000
vt 0.375000 1.000000
vt 0.125000 0.750000
vt 0.625000 0.000000
vt 0.625000 1.000000
vt 0.875000 0.750000
vt 0.375000 0.250000
vt 0.125000 0.500000
vt 0.625000 0.250000
vt 0.875000 0.500000
vt 0.375000 0.750000
vt 0.625000 0.750000
vt 0.375000 0.500000
vt 0.625000 0.500000
vt 0.180278 0.650794
vt 0.388922 0.250000
vt 0.319722 0.650794
vt 0.388922 0.500000
vt 0.375000 0.805278
vt 0.319722 0.750000
vt 0.388922 0.677859
vt 0.525799 0.805277
vt 0.625000 0.677859
vt 0.875000 0.677859
vt 0.525799 0.944722
vt 0.625000 0.072141
vt 0.375000 0.944722
vt 0.180278 0.750000
vt 0.388922 0.072141
vt 0.375000 0.000000
vt 0.375000 1.000000
vt 0.125000 0.750000
vt 0.625000 0.000000
vt 0.625000 1.000000
vt 0.875000 0.750000
vt 0.375000 0.250000
vt 0.125000 0.500000
vt 0.625000 0.250000
vt 0.875000 0.500000
vt 0.375000 0.750000
vt 0.625000 0.750000
vt 0.375000 0.500000
vt 0.625000 0.500000
vt 0.375000 0.000000
vt 0.375000 1.000000
vt 0.125000 0.750000
vt 0.625000 0.000000
vt 0.625000 1.000000
vt 0.875000 0.750000
vt 0.375000 0.250000
vt 0.125000 0.500000
vt 0.625000 0.250000
vt 0.875000 0.500000
vt 0.375000 0.750000
vt 0.625000 0.750000
vt 0.375000 0.500000
vt 0.625000 0.500000
vt 0.375000 0.000000
vt 0.375000 1.000000
vt 0.125000 0.750000
vt 0.625000 0.000000
vt 0.625000 1.000000
vt 0.875000 0.750000
vt 0.375000 0.250000
vt 0.125000 0.500000
vt 0.625000 0.250000
vt 0.875000 0.500000
vt 0.375000 0.750000
vt 0.625000 0.750000
vt 0.375000 0.500000
vt 0.625000 0.500000
vt 0.375000 0.000000
vt 0.375000 1.000000
vt 0.125000 0.750000
vt 0.625000 0.000000
vt 0.625000 1.000000
vt 0.875000 0.750000
vt 0.375000 0.250000
vt 0.125000 0.500000
vt 0.625000 0.250000
vt 0.875000 0.500000
vt 0.375000 0.750000
vt 0.625000 0.750000
vt 0.375000 0.500000
vt 0.625000 0.500000
vt 0.400648 0.974352
vt 0.599352 0.974352
vt 0.375000 0.250000
vt 0.125000 0.500000
vt 0.625000 0.250000
vt 0.875000 0.500000
vt 0.400648 0.775648
vt 0.599352 0.775648
vt 0.375000 0.500000
vt 0.625000 0.500000
vt 0.375000 0.000000
vt 0.125000 0.750000
vt 0.375000 1.000000
vt 0.625000 0.000000
vt 0.875000 0.750000
vt 0.625000 1.000000
vt 0.625000 0.750000
vt 0.375000 0.750000
vt 0.400648 0.974352
vt 0.599352 0.974352
vt 0.599352 0.775648
vt 0.400648 0.775648
vt 0.375000 0.000000
vt 0.375000 1.000000
vt 0.832714 0.707686
vt 0.375000 0.250000
vt 0.832714 0.542314
vt 0.375000 0.750000
vt 0.667286 0.707686
vt 0.375000 0.500000
vt 0.667286 0.542314
vt 0.562500 1.000000
vt 0.562500 0.000000
vt 0.562500 0.250000
vt 0.562500 0.500000
vt 0.562500 0.750000
vt 0.562500 1.000000
vt 0.562500 0.000000
vt 0.625000 0.000000
vt 0.875000 0.750000
vt 0.625000 1.000000
vt 0.875000 0.500000
vt 0.625000 0.250000
vt 0.562500 0.250000
vt 0.625000 0.500000
vt 0.625000 0.750000
vt 0.562500 0.500000
vt 0.562500 0.750000
vt 0.562500 0.000000
vt 0.562500 1.000000
vt 0.562500 0.250000
vt 0.625000 0.250000
vt 0.875000 0.500000
vt 0.625000 1.000000
vt 0.875000 0.750000
vt 0.625000 0.750000
vt 0.625000 0.500000
vt 0.562500 0.500000
vt 0.562500 0.750000
vt 0.562500 1.000000
vt 0.562500 0.000000
vt 0.562500 0.250000
vt 0.562500 1.000000
vt 0.562500 0.000000
vt 0.562500 0.500000
vt 0.562500 0.750000
vt 0.562500 0.500000
vt 0.562500 0.250000
vt 0.562500 0.750000
vt 0.625000 0.750000
vt 0.562500 0.500000
vt 0.625000 0.500000
vt 0.562500 0.750000
vt 0.562500 0.500000
vt 0.562500 0.750000
vt 0.562500 1.000000
vt 0.625000 0.250000
vt 0.875000 0.500000
vt 0.562500 0.250000
vt 0.625000 1.000000
vt 0.875000 0.750000
vt 0.562500 1.000000
vt 0.562500 0.000000
vt 0.562500 0.250000
vt 0.562500 1.000000
vt 0.562500 0.000000
vt 0.562500 0.250000
vt 0.562500 1.000000
vt 0.562500 0.000000
vt 0.562500 0.500000
vt 0.562500 0.750000
vt 0.562500 0.500000
vt 0.562500 0.750000
vt 0.562500 0.250000
vt 0.375000 1.000000
vt 0.375000 0.000000
vt 0.375000 0.250000
vt 0.375000 0.750000
vt 0.375000 0.500000
vt 0.375000 0.416667
vt 0.375000 0.333333
vt 0.791667 0.542314
vt 0.708333 0.542314
vt 0.375000 0.916667
vt 0.375000 0.833333
vt 0.708333 0.707686
vt 0.791667 0.707686
vt 0.562500 0.833333
vt 0.562500 0.916667
vt 0.562500 0.333333
vt 0.562500 0.416667
vt 0.375000 0.416667
vt 0.291667 0.500000
vt 0.208333 0.500000
vt 0.375000 0.333333
vt 0.208333 0.750000
vt 0.375000 0.916667
vt 0.291667 0.750000
vt 0.375000 0.833333
vt 0.125000 0.500000
vt 0.375000 0.250000
vt 0.125000 0.750000
vt 0.375000 1.000000
vt 0.375000 0.000000
vt 0.208333 0.500000
vt 0.375000 0.333333
vt 0.375000 0.750000
vt 0.375000 0.500000
vt 0.291667 0.750000
vt 0.375000 0.833333
vt 0.375000 0.416667
vt 0.291667 0.500000
vt 0.208333 0.750000
vt 0.375000 0.916667
vt 0.625000 1.000000
vt 0.875000 0.750000
vt 0.625000 0.250000
vt 0.875000 0.500000
vt 0.625000 0.416667
vt 0.708333 0.500000
vt 0.625000 0.500000
vt 0.625000 0.750000
vt 0.625000 0.916667
vt 0.791667 0.750000
vt 0.625000 0.333333
vt 0.791667 0.500000
vt 0.625000 0.833333
vt 0.708333 0.750000
vt 0.708333 0.542314
vt 0.708333 0.707686
vt 0.791667 0.542314
vt 0.791667 0.707686
vt 0.832714 0.707686
vt 0.832714 0.542314
vt 0.667286 0.542314
vt 0.667286 0.707686
vt 0.562500 0.500000
vt 0.562500 0.750000
vt 0.562500 0.750000
vt 0.562500 0.500000
vt 0.562500 0.500000
vt 0.562500 0.750000
vt 0.562500 0.750000
vt 0.562500 0.500000
vt 0.562500 0.500000
vt 0.562500 0.750000
vt 0.562500 0.500000
vt 0.562500 0.750000
vt 0.375000 1.000000
vt 0.375000 0.000000
vt 0.832714 0.707686
vt 0.375000 0.250000
vt 0.832714 0.542314
vt 0.375000 0.750000
vt 0.667286 0.707686
vt 0.375000 0.500000
vt 0.667286 0.542314
vt 0.562500 1.000000
vt 0.562500 0.000000
vt 0.562500 0.250000
vt 0.562500 0.500000
vt 0.562500 0.750000
vt 0.562500 0.000000
vt 0.562500 1.000000
vt 0.625000 0.000000
vt 0.875000 0.750000
vt 0.625000 1.000000
vt 0.875000 0.500000
vt 0.625000 0.250000
vt 0.562500 0.250000
vt 0.625000 0.500000
vt 0.625000 0.750000
vt 0.562500 0.500000
vt 0.562500 0.750000
vt 0.562500 0.000000
vt 0.562500 1.000000
vt 0.562500 0.250000
vt 0.625000 0.250000
vt 0.875000 0.500000
vt 0.625000 1.000000
vt 0.875000 0.750000
vt 0.625000 0.750000
vt 0.625000 0.500000
vt 0.562500 0.500000
vt 0.562500 0.750000
vt 0.625000 0.750000
vt 0.562500 0.500000
vt 0.625000 0.500000
vt 0.562500 0.750000
vt 0.562500 1.000000
vt 0.625000 0.250000
vt 0.875000 0.500000
vt 0.562500 0.250000
vt 0.625000 1.000000
vt 0.875000 0.750000
vt 0.375000 0.416667
vt 0.375000 0.333333
vt 0.791667 0.542314
vt 0.708333 0.542314
vt 0.375000 0.916667
vt 0.375000 0.833333
vt 0.708333 0.707686
vt 0.791667 0.707686
vt 0.562500 0.833333
vt 0.562500 0.916667
vt 0.562500 0.333333
vt 0.562500 0.416667
vt 0.625000 1.000000
vt 0.875000 0.750000
vt 0.625000 0.250000
vt 0.875000 0.500000
vt 0.625000 0.416667
vt 0.708333 0.500000
vt 0.625000 0.500000
vt 0.625000 0.750000
vt 0.625000 0.916667
vt 0.791667 0.750000
vt 0.625000 0.333333
vt 0.791667 0.500000
vt 0.625000 0.833333
vt 0.708333 0.750000
vt 0.562500 0.000000
vt 0.562500 1.000000
vt 0.562500 0.250000
vt 0.562500 0.500000
vt 0.562500 0.750000
vt 0.562500 0.000000
vt 0.562500 1.000000
vt 0.562500 0.250000
vt 0.562500 0.500000
vt 0.562500 0.750000
vt 0.562500 0.500000
vt 0.562500 0.750000
vt 0.562500 1.000000
vt 0.562500 0.250000
vt 0.375000 1.000000
vt 0.375000 0.000000
vt 0.375000 0.250000
vt 0.375000 0.750000
vt 0.375000 0.500000
vt 0.375000 1.000000
vt 0.375000 0.000000
vt 0.375000 0.250000
vt 0.375000 0.750000
vt 0.375000 0.500000
vt 0.375000 0.416667
vt 0.375000 0.333333
vt 0.375000 0.916667
vt 0.375000 0.833333
vt 0.375000 0.416667
vt 0.291667 0.500000
vt 0.208333 0.500000
vt 0.375000 0.333333
vt 0.208333 0.750000
vt 0.375000 0.916667
vt 0.375000 0.833333
vt 0.291667 0.750000
vt 0.375000 1.000000
vt 0.375000 0.000000
vt 0.375000 0.250000
vt 0.208333 0.500000
vt 0.375000 0.333333
vt 0.208333 0.750000
vt 0.375000 0.916667
vt 0.375000 0.750000
vt 0.375000 0.500000
vt 0.375000 0.416667
vt 0.291667 0.500000
vt 0.375000 0.833333
vt 0.291667 0.750000
vt 0.375000 0.500000
vt 0.375000 0.250000
vt 0.375000 1.000000
vt 0.375000 0.000000
vt 0.375000 0.750000
vt 0.375000 0.835221
vt 0.375000 0.914779
vt 0.375000 0.333333
vt 0.375000 0.416667
vt 0.375000 0.833333
vt 0.375000 0.914779
vt 0.375000 0.835221
vt 0.375000 0.916667
vt 0.125000 0.750000
vt 0.375000 0.000000
vt 0.625000 0.000000
vt 0.625000 1.000000
vt 0.875000 0.750000
vt 0.125000 0.500000
vt 0.375000 0.250000
vt 0.875000 0.500000
vt 0.625000 0.250000
vt 0.375000 0.750000
vt 0.625000 0.750000
vt 0.375000 0.500000
vt 0.625000 0.500000
vt 0.500000 1.000000
vt 0.500000 0.000000
vt 0.500000 0.250000
vt 0.500000 0.500000
vt 0.500000 0.750000
vt 0.500000 0.750000
vt 0.375000 0.750000
vt 0.375000 0.000000
vt 0.125000 0.750000
vt 0.375000 1.000000
vt 0.500000 1.000000
vt 0.500000 0.000000
vt 0.291667 0.500000
vt 0.375000 0.416667
vt 0.208333 0.500000
vt 0.375000 0.333333
vt 0.791667 0.500000
vt 0.625000 0.333333
vt 0.708333 0.500000
vt 0.625000 0.416667
vt 0.208333 0.750000
vt 0.291667 0.750000
vt 0.708333 0.750000
vt 0.625000 0.833333
vt 0.791667 0.750000
vt 0.625000 0.916667
vt 0.500000 0.833333
vt 0.500000 0.916667
vt 0.500000 0.333333
vt 0.500000 0.416667
vt 0.208333 0.750000
vt 0.375000 0.916667
vt 0.291667 0.750000
vt 0.375000 0.833333
vt 0.500000 0.833333
vt 0.500000 0.916667
vt 0.408537 0.250000
vt 0.408537 0.500000
vt 0.408537 0.750000
vt 0.408537 0.000000
vt 0.408537 0.750000
vt 0.408537 1.000000
vt 0.408537 0.000000
vt 0.408537 0.833333
vt 0.408537 0.916667
vt 0.408537 0.333333
vt 0.408537 0.416667
vt 0.125000 0.750000
vt 0.375000 0.000000
vt 0.625000 0.000000
vt 0.625000 1.000000
vt 0.875000 0.750000
vt 0.125000 0.500000
vt 0.375000 0.250000
vt 0.875000 0.500000
vt 0.625000 0.250000
vt 0.375000 0.750000
vt 0.625000 0.750000
vt 0.375000 0.500000
vt 0.625000 0.500000
vt 0.500000 1.000000
vt 0.500000 0.000000
vt 0.500000 0.250000
vt 0.500000 0.500000
vt 0.500000 0.750000
vt 0.500000 0.750000
vt 0.375000 0.750000
vt 0.375000 0.000000
vt 0.125000 0.750000
vt 0.375000 1.000000
vt 0.500000 1.000000
vt 0.500000 0.000000
vt 0.291667 0.500000
vt 0.375000 0.416667
vt 0.208333 0.500000
vt 0.375000 0.333333
vt 0.791667 0.500000
vt 0.625000 0.333333
vt 0.708333 0.500000
vt 0.625000 0.416667
vt 0.208333 0.750000
vt 0.291667 0.750000
vt 0.708333 0.750000
vt 0.625000 0.833333
vt 0.791667 0.750000
vt 0.625000 0.916667
vt 0.500000 0.833333
vt 0.500000 0.916667
vt 0.500000 0.333333
vt 0.500000 0.416667
vt 0.208333 0.750000
vt 0.375000 0.916667
vt 0.291667 0.750000
vt 0.375000 0.833333
vt 0.500000 0.833333
vt 0.500000 0.916667
vt 0.408537 0.250000
vt 0.408537 0.500000
vt 0.408537 0.750000
vt 0.408537 0.000000
vt 0.408537 0.750000
vt 0.408537 1.000000
vt 0.408537 0.000000
vt 0.408537 0.833333
vt 0.408537 0.916667
vt 0.408537 0.333333
vt 0.408537 0.416667
vt 0.375000 0.000000
vt 0.375000 1.000000
vt 0.125000 0.750000
vt 0.625000 0.000000
vt 0.625000 1.000000
vt 0.875000 0.750000
vt 0.375000 0.250000
vt 0.125000 0.500000
vt 0.625000 0.250000
vt 0.875000 0.500000
vt 0.375000 0.750000
vt 0.625000 0.750000
vt 0.375000 0.500000
vt 0.625000 0.500000
vt 0.375000 0.000000
vt 0.375000 1.000000
vt 0.125000 0.750000
vt 0.625000 0.000000
vt 0.625000 1.000000
vt 0.875000 0.750000
vt 0.375000 0.250000
vt 0.125000 0.500000
vt 0.625000 0.250000
vt 0.875000 0.500000
vt 0.375000 0.750000
vt 0.625000 0.750000
vt 0.375000 0.500000
vt 0.625000 0.500000
vt 0.375000 0.000000
vt 0.375000 1.000000
vt 0.125000 0.750000
vt 0.625000 0.000000
vt 0.625000 1.000000
vt 0.875000 0.750000
vt 0.375000 0.250000
vt 0.125000 0.500000
vt 0.625000 0.250000
vt 0.875000 0.500000
vt 0.375000 0.750000
vt 0.625000 0.750000
vt 0.375000 0.500000
vt 0.625000 0.500000
vt 0.375000 0.000000
vt 0.375000 1.000000
vt 0.125000 0.750000
vt 0.625000 0.000000
vt 0.625000 1.000000
vt 0.875000 0.750000
vt 0.375000 0.250000
vt 0.125000 0.500000
vt 0.625000 0.250000
vt 0.875000 0.500000
vt 0.375000 0.750000
vt 0.625000 0.750000
vt 0.375000 0.500000
vt 0.625000 0.500000
vt 0.375000 0.000000
vt 0.375000 1.000000
vt 0.125000 0.750000
vt 0.625000 0.000000
vt 0.625000 1.000000
vt 0.875000 0.750000
vt 0.375000 0.250000
vt 0.125000 0.500000
vt 0.625000 0.250000
vt 0.875000 0.500000
vt 0.375000 0.750000
vt 0.625000 0.750000
vt 0.375000 0.500000
vt 0.625000 0.500000
vt 0.375000 0.000000
vt 0.375000 1.000000
vt 0.125000 0.750000
vt 0.625000 0.000000
vt 0.625000 1.000000
vt 0.875000 0.750000
vt 0.375000 0.250000
vt 0.125000 0.500000
vt 0.625000 0.250000
vt 0.875000 0.500000
vt 0.375000 0.750000
vt 0.625000 0.750000
vt 0.375000 0.500000
vt 0.625000 0.500000
vt 0.375000 0.000000
vt 0.375000 1.000000
vt 0.125000 0.750000
vt 0.625000 0.000000
vt 0.625000 1.000000
vt 0.875000 0.750000
vt 0.375000 0.250000
vt 0.125000 0.500000
vt 0.625000 0.250000
vt 0.875000 0.500000
vt 0.375000 0.750000
vt 0.625000 0.750000
vt 0.375000 0.500000
vt 0.625000 0.500000
vt 0.375000 0.000000
vt 0.375000 1.000000
vt 0.125000 0.750000
vt 0.625000 0.000000
vt 0.625000 1.000000
vt 0.875000 0.750000
vt 0.375000 0.250000
vt 0.125000 0.500000
vt 0.625000 0.250000
vt 0.875000 0.500000
vt 0.375000 0.750000
vt 0.625000 0.750000
vt 0.375000 0.500000
vt 0.625000 0.500000
vt 0.375000 0.000000
vt 0.375000 1.000000
vt 0.125000 0.750000
vt 0.625000 0.000000
vt 0.625000 1.000000
vt 0.875000 0.750000
vt 0.375000 0.250000
vt 0.125000 0.500000
vt 0.625000 0.250000
vt 0.875000 0.500000
vt 0.375000 0.750000
vt 0.625000 0.750000
vt 0.375000 0.500000
vt 0.625000 0.500000
vt 1.000000 0.500000
vt 0.000000 0.500000
vt 0.750000 0.490000
vt 1.000000 1.000000
vt 0.250000 0.490000
vt 0.000000 1.000000
vt 0.968750 0.500000
vt 0.796822 0.485388
vt 0.968750 1.000000
vt 0.296822 0.485388
vt 0.937500 0.500000
vt 0.841844 0.471731
vt 0.937500 1.000000
vt 0.341844 0.471731
vt 0.906250 0.500000
vt 0.883337 0.449553
vt 0.906250 1.000000
vt 0.383337 0.449553
vt 0.875000 0.500000
vt 0.919706 0.419706
vt 0.875000 1.000000
vt 0.419706 0.419706
vt 0.843750 0.500000
vt 0.949553 0.383337
vt 0.843750 1.000000
vt 0.449553 0.383337
vt 0.812500 0.500000
vt 0.971731 0.341844
vt 0.812500 1.000000
vt 0.471731 0.341844
vt 0.781250 0.500000
vt 0.985388 0.296822
vt 0.781250 1.000000
vt 0.485388 0.296822
vt 0.750000 0.500000
vt 0.990000 0.250000
vt 0.750000 1.000000
vt 0.490000 0.250000
vt 0.718750 0.500000
vt 0.985388 0.203178
vt 0.718750 1.000000
vt 0.485388 0.203178
vt 0.687500 0.500000
vt 0.971731 0.158156
vt 0.687500 1.000000
vt 0.471731 0.158156
vt 0.656250 0.500000
vt 0.949553 0.116663
vt 0.656250 1.000000
vt 0.449553 0.116663
vt 0.625000 0.500000
vt 0.919706 0.080294
vt 0.625000 1.000000
vt 0.419706 0.080294
vt 0.593750 0.500000
vt 0.883337 0.050447
vt 0.593750 1.000000
vt 0.383337 0.050447
vt 0.562500 0.500000
vt 0.841844 0.028269
vt 0.562500 1.000000
vt 0.341844 0.028269
vt 0.531250 0.500000
vt 0.796822 0.014612
vt 0.531250 1.000000
vt 0.296822 0.014612
vt 0.500000 0.500000
vt 0.750000 0.010000
vt 0.500000 1.000000
vt 0.250000 0.010000
vt 0.468750 0.500000
vt 0.703178 0.014612
vt 0.468750 1.000000
vt 0.203178 0.014612
vt 0.437500 0.500000
vt 0.658156 0.028269
vt 0.437500 1.000000
vt 0.158156 0.028269
vt 0.406250 0.500000
vt 0.616663 0.050447
vt 0.406250 1.000000
vt 0.116663 0.050447
vt 0.375000 0.500000
vt 0.580294 0.080294
vt 0.375000 1.000000
vt 0.080294 0.080294
vt 0.343750 0.500000
vt 0.550447 0.116663
vt 0.343750 1.000000
vt 0.050447 0.116663
vt 0.312500 0.500000
vt 0.528269 0.158156
vt 0.312500 1.000000
vt 0.028269 0.158156
vt 0.281250 0.500000
vt 0.514611 0.203179
vt 0.281250 1.000000
vt 0.014611 0.203179
vt 0.250000 0.500000
vt 0.510000 0.250000
vt 0.250000 1.000000
vt 0.010000 0.250000
vt 0.218750 0.500000
vt 0.514612 0.296822
vt 0.218750 1.000000
vt 0.014612 0.296822
vt 0.187500 0.500000
vt 0.528269 0.341844
vt 0.187500 1.000000
vt 0.028269 0.341844
vt 0.156250 0.500000
vt 0.550447 0.383337
vt 0.156250 1.000000
vt 0.050447 0.383337
vt 0.125000 0.500000
vt 0.580295 0.419706
vt 0.125000 1.000000
vt 0.080295 0.419706
vt 0.093750 0.500000
vt 0.616663 0.449553
vt 0.093750 1.000000
vt 0.116663 0.449553
vt 0.062500 0.500000
vt 0.658156 0.471731
vt 0.158156 0.471731
vt 0.062500 1.000000
vt 0.031250 0.500000
vt 0.703179 0.485389
vt 0.203179 0.485389
vt 0.031250 1.000000
vt 1.000000 0.500000
vt 0.000000 0.500000
vt 0.750000 0.490000
vt 1.000000 1.000000
vt 0.250000 0.490000
vt 0.000000 1.000000
vt 0.968750 0.500000
vt 0.796822 0.485388
vt 0.968750 1.000000
vt 0.296822 0.485388
vt 0.937500 0.500000
vt 0.841844 0.471731
vt 0.937500 1.000000
vt 0.341844 0.471731
vt 0.906250 0.500000
vt 0.883337 0.449553
vt 0.906250 1.000000
vt 0.383337 0.449553
vt 0.875000 0.500000
vt 0.919706 0.419706
vt 0.875000 1.000000
vt 0.419706 0.419706
vt 0.843750 0.500000
vt 0.949553 0.383337
vt 0.843750 1.000000
vt 0.449553 0.383337
vt 0.812500 0.500000
vt 0.971731 0.341844
vt 0.812500 1.000000
vt 0.471731 0.341844
vt 0.781250 0.500000
vt 0.985388 0.296822
vt 0.781250 1.000000
vt 0.485388 0.296822
vt 0.750000 0.500000
vt 0.990000 0.250000
vt 0.750000 1.000000
vt 0.490000 0.250000
vt 0.718750 0.500000
vt 0.985388 0.203178
vt 0.718750 1.000000
vt 0.485388 0.203178
vt 0.687500 0.500000
vt 0.971731 0.158156
vt 0.687500 1.000000
vt 0.471731 0.158156
vt 0.656250 0.500000
vt 0.949553 0.116663
vt 0.656250 1.000000
vt 0.449553 0.116663
vt 0.625000 0.500000
vt 0.919706 0.080294
vt 0.625000 1.000000
vt 0.419706 0.080294
vt 0.593750 0.500000
vt 0.883337 0.050447
vt 0.593750 1.000000
vt 0.383337 0.050447
vt 0.562500 0.500000
vt 0.841844 0.028269
vt 0.562500 1.000000
vt 0.341844 0.028269
vt 0.531250 0.500000
vt 0.796822 0.014612
vt 0.531250 1.000000
vt 0.296822 0.014612
vt 0.500000 0.500000
vt 0.750000 0.010000
vt 0.500000 1.000000
vt 0.250000 0.010000
vt 0.468750 0.500000
vt 0.703178 0.014612
vt 0.468750 1.000000
vt 0.203178 0.014612
vt 0.437500 0.500000
vt 0.658156 0.028269
vt 0.437500 1.000000
vt 0.158156 0.028269
vt 0.406250 0.500000
vt 0.616663 0.050447
vt 0.406250 1.000000
vt 0.116663 0.050447
vt 0.375000 0.500000
vt 0.580294 0.080294
vt 0.375000 1.000000
vt 0.080294 0.080294
vt 0.343750 0.500000
vt 0.550447 0.116663
vt 0.343750 1.000000
vt 0.050447 0.116663
vt 0.312500 0.500000
vt 0.528269 0.158156
vt 0.312500 1.000000
vt 0.028269 0.158156
vt 0.281250 0.500000
vt 0.514611 0.203179
vt 0.281250 1.000000
vt 0.014611 0.203179
vt 0.250000 0.500000
vt 0.510000 0.250000
vt 0.250000 1.000000
vt 0.010000 0.250000
vt 0.218750 0.500000
vt 0.514612 0.296822
vt 0.218750 1.000000
vt 0.014612 0.296822
vt 0.187500 0.500000
vt 0.528269 0.341844
vt 0.187500 1.000000
vt 0.028269 0.341844
vt 0.156250 0.500000
vt 0.550447 0.383337
vt 0.156250 1.000000
vt 0.050447 0.383337
vt 0.125000 0.500000
vt 0.580295 0.419706
vt 0.125000 1.000000
vt 0.080295 0.419706
vt 0.093750 0.500000
vt 0.616663 0.449553
vt 0.093750 1.000000
vt 0.116663 0.449553
vt 0.062500 0.500000
vt 0.658156 0.471731
vt 0.158156 0.471731
vt 0.062500 1.000000
vt 0.031250 0.500000
vt 0.703179 0.485389
vt 0.203179 0.485389
vt 0.031250 1.000000
s 0
usemtl Material.1326
f 9/11/1 10/14/1 4/5/1 3/3/1
f 3/3/2 4/5/2 8/10/2 7/9/2
f 7/9/3 8/10/3 11/17/3 12/18/3
f 1/1/4 5/7/4 16/22/4 13/19/4
f 3/4/5 7/9/5 12/18/5 9/12/5
f 8/10/4 4/6/4 10/15/4 11/17/4
f 1/1/6 2/2/6 10/16/6 9/13/6
f 6/8/6 5/7/6 12/18/6 11/17/6
f 5/7/6 1/1/6 9/13/6 12/18/6
f 2/2/6 6/8/6 11/17/6 10/16/6
f 2/2/3 1/1/3 13/19/3 14/20/3
f 6/8/5 2/2/5 14/20/5 15/21/5
f 5/7/1 6/8/1 15/21/1 16/22/1
f 17/23/1 18/26/1 20/31/1 19/29/1
f 19/29/2 20/31/2 24/36/2 23/35/2
f 23/35/3 24/36/3 22/34/3 21/33/3
f 21/33/6 22/34/6 18/27/6 17/24/6
f 19/30/5 23/35/5 21/33/5 17/25/5
f 24/36/4 20/32/4 18/28/4 22/34/4
f 25/37/1 26/40/1 28/45/1 27/43/1
f 27/43/2 28/45/2 32/50/2 31/49/2
f 31/49/3 32/50/3 30/48/3 29/47/3
f 29/47/6 30/48/6 26/41/6 25/38/6
f 27/44/5 31/49/5 29/47/5 25/39/5
f 32/50/4 28/46/4 26/42/4 30/48/4
f 95/163/1 96/166/1 90/157/1 89/155/1
f 89/155/2 90/157/2 94/162/2 93/161/2
f 93/161/3 94/162/3 97/169/3 98/170/3
f 87/153/4 91/159/4 102/174/4 99/171/4
f 89/156/5 93/161/5 98/170/5 95/164/5
f 94/162/4 90/158/4 96/167/4 97/169/4
f 87/153/6 88/154/6 96/168/6 95/165/6
f 92/160/6 91/159/6 98/170/6 97/169/6
f 91/159/6 87/153/6 95/165/6 98/170/6
f 88/154/6 92/160/6 97/169/6 96/168/6
f 88/154/3 87/153/3 99/171/3 100/172/3
f 92/160/5 88/154/5 100/172/5 101/173/5
f 91/159/1 92/160/1 101/173/1 102/174/1
f 147/231/2 124/203/2 137/220/2 150/236/2
f 174/263/2 189/291/2 190/293/2 113/187/2
f 141/224/4 139/222/4 120/198/4 119/197/4
f 172/261/6 192/295/6 187/287/6 111/184/6
f 163/252/2 109/182/2 162/251/2 175/264/2
f 169/258/6 108/181/6 202/308/6 196/302/6
f 167/256/6 172/261/6 111/184/6 103/176/6
f 109/182/3 113/187/3 114/188/3 107/180/3
f 163/252/2 174/263/2 113/187/2 109/182/2
f 103/175/1 111/185/1 112/186/1 105/178/1
f 115/190/1 116/191/1 117/195/1 118/196/1
f 148/233/4 146/230/4 117/194/4 116/192/4
f 146/229/2 147/231/2 118/196/2 117/195/2
f 145/228/6 148/232/6 116/193/6 115/189/6
f 121/199/3 119/197/3 120/198/3 122/200/3
f 204/310/1 203/309/1 136/219/1 138/221/1
f 139/222/6 142/225/6 122/200/6 120/198/6
f 140/223/2 141/224/2 119/197/2 121/199/2
f 111/184/6 187/287/6 126/206/6 123/202/6
f 188/289/2 112/186/2 124/203/2 125/204/2
f 187/288/4 188/290/4 125/205/4 126/207/4
f 112/186/5 111/185/5 123/201/5 124/203/5
f 113/187/2 190/293/2 128/209/2 129/210/2
f 191/294/6 114/188/6 130/211/6 127/208/6
f 114/188/5 113/187/5 129/210/5 130/211/5
f 190/293/4 191/294/4 127/208/4 128/209/4
f 149/234/6 131/212/6 151/237/6 153/240/6
f 143/226/2 134/217/2 154/242/2 156/244/2
f 145/228/6 115/189/6 131/212/6 149/234/6
f 206/312/3 205/311/3 135/218/3 134/217/3
f 208/314/6 204/310/6 138/221/6 144/227/6
f 115/190/1 118/196/1 132/214/1 131/213/1
f 207/313/2 206/312/2 134/217/2 143/226/2
f 124/203/3 123/201/3 133/216/3 137/220/3
f 203/309/2 207/313/2 143/226/2 136/219/2
f 205/311/6 208/314/6 144/227/6 135/218/6
f 138/221/5 136/219/5 143/226/5 144/227/5
f 129/210/2 128/209/2 141/224/2 140/223/2
f 127/208/6 130/211/6 142/225/6 139/222/6
f 128/209/4 127/208/4 139/222/4 141/224/4
f 123/202/6 145/228/6 149/234/6 133/215/6
f 137/220/5 133/216/5 149/235/5 150/236/5
f 123/202/6 126/206/6 148/232/6 145/228/6
f 125/204/2 124/203/2 147/231/2 146/229/2
f 126/207/4 125/205/4 146/230/4 148/233/4
f 118/196/2 147/231/2 150/236/2 132/214/2
f 158/246/5 153/241/5 151/238/5 152/239/5
f 157/245/5 156/244/5 154/242/5 155/243/5
f 135/218/6 144/227/6 157/245/6 155/243/6
f 150/236/3 149/235/3 153/241/3 158/246/3
f 144/227/1 143/226/1 156/244/1 157/245/1
f 134/217/3 135/218/3 155/243/3 154/242/3
f 132/214/2 150/236/2 158/246/2 152/239/2
f 131/213/1 132/214/1 152/239/1 151/238/1
f 162/251/3 161/250/3 182/279/3 183/280/3
f 103/175/1 105/178/1 160/249/1 159/248/1
f 109/182/3 107/180/3 161/250/3 162/251/3
f 167/256/6 103/176/6 159/247/6 177/269/6
f 107/180/6 168/257/6 178/271/6 161/250/6
f 168/257/6 167/256/6 177/269/6 178/271/6
f 176/266/3 177/268/3 186/285/3 181/277/3
f 176/266/5 175/265/5 178/270/5 177/268/5
f 105/178/2 112/186/2 173/262/2 164/253/2
f 164/253/2 173/262/2 174/263/2 163/252/2
f 107/180/6 114/188/6 171/260/6 168/257/6
f 168/257/6 171/260/6 172/261/6 167/256/6
f 110/183/2 166/255/2 195/301/2 201/307/2
f 104/177/6 170/259/6 198/304/6 199/305/6
f 105/178/2 164/253/2 176/267/2 160/249/2
f 164/253/2 163/252/2 175/264/2 176/267/2
f 114/188/6 191/294/6 194/299/6 171/260/6
f 171/260/6 194/299/6 192/295/6 172/261/6
f 112/186/2 188/289/2 193/297/2 173/262/2
f 173/262/2 193/297/2 189/291/2 174/263/2
f 185/284/5 183/280/5 182/279/5 184/281/5
f 179/272/5 181/277/5 186/285/5 180/274/5
f 177/269/6 159/247/6 180/275/6 186/286/6
f 159/248/1 160/249/1 179/273/1 180/276/1
f 175/264/2 162/251/2 183/280/2 185/283/2
f 178/270/1 175/265/1 185/284/1 184/281/1
f 161/250/6 178/271/6 184/282/6 182/279/6
f 160/249/2 176/267/2 181/278/2 179/273/2
f 104/177/4 106/179/4 188/290/4 187/288/4
f 166/255/4 110/183/4 190/293/4 189/292/4
f 110/183/4 108/181/4 191/294/4 190/293/4
f 170/259/4 104/177/4 187/288/4 192/296/4
f 106/179/4 165/254/4 193/298/4 188/290/4
f 165/254/4 166/255/4 189/292/4 193/298/4
f 108/181/4 169/258/4 194/300/4 191/294/4
f 169/258/4 170/259/4 192/296/4 194/300/4
f 197/303/4 200/306/4 199/305/4 198/304/4
f 201/307/4 195/301/4 196/302/4 202/308/4
f 195/301/4 197/303/4 198/304/4 196/302/4
f 165/254/2 106/179/2 200/306/2 197/303/2
f 108/181/3 110/183/3 201/307/3 202/308/3
f 106/179/1 104/177/1 199/305/1 200/306/1
f 170/259/6 169/258/6 196/302/6 198/304/6
f 166/255/2 165/254/2 197/303/2 195/301/2
f 130/211/1 129/210/1 211/317/1 209/315/1
f 121/199/3 122/200/3 212/318/3 210/316/3
f 142/225/6 130/211/6 209/315/6 214/320/6
f 140/223/2 121/199/2 210/316/2 213/319/2
f 129/210/2 140/223/2 213/319/2 211/317/2
f 122/200/6 142/225/6 214/320/6 212/318/6
usemtl Material.1327
f 16/22/6 15/21/6 14/20/6 13/19/6
f 102/174/6 101/173/6 100/172/6 99/171/6
usemtl Material.1328
f 33/51/7 34/54/7 36/59/7 35/57/7
f 35/57/5 36/59/5 38/64/5 37/61/5
f 36/60/6 34/55/6 38/63/6
f 37/61/8 38/64/8 34/56/8 33/52/8
f 33/53/2 35/58/2 37/62/2
usemtl Material.1329
f 40/67/5 52/90/5 53/91/5 39/65/5
f 41/68/1 42/71/1 44/76/1 43/74/1
f 43/74/2 44/76/2 48/81/2 47/80/2
f 47/80/3 48/81/3 46/79/3 45/78/3
f 45/78/6 46/79/6 42/72/6 41/69/6 54/94/6 53/92/6 52/89/6 51/86/6
f 43/75/5 47/80/5 45/78/5 51/87/5 50/84/5 49/82/5 54/95/5 41/70/5
f 48/81/4 44/77/4 42/73/4 46/79/4
f 52/90/1 40/67/1 50/85/1 51/88/1
f 50/85/6 40/67/6 39/66/6 49/83/6
f 49/83/3 39/66/3 53/93/3 54/96/3
usemtl Material.1330
f 55/97/1 56/100/1 58/105/1 57/103/1
f 57/103/2 58/105/2 62/110/2 61/109/2
f 61/109/3 62/110/3 60/108/3 59/107/3
f 59/107/6 60/108/6 56/101/6 55/98/6
f 57/104/5 61/109/5 59/107/5 55/99/5
f 62/110/4 58/106/4 56/102/4 60/108/4
f 63/111/1 64/114/1 66/119/1 65/117/1
f 65/117/2 66/119/2 70/124/2 69/123/2
f 69/123/3 70/124/3 68/122/3 67/121/3
f 67/121/6 68/122/6 64/115/6 63/112/6
f 65/118/5 69/123/5 67/121/5 63/113/5
f 70/124/4 66/120/4 64/116/4 68/122/4
usemtl Material.1331
f 71/125/1 72/128/1 74/133/1 73/131/1
f 73/131/2 74/133/2 78/138/2 77/137/2
f 77/137/3 78/138/3 76/136/3 75/135/3
f 75/135/6 76/136/6 72/129/6 71/126/6
f 73/132/5 77/137/5 75/135/5 71/127/5
f 78/138/4 74/134/4 72/130/4 76/136/4
f 79/139/1 80/142/1 82/147/1 81/145/1
f 81/145/2 82/147/2 86/152/2 85/151/2
f 85/151/3 86/152/3 84/150/3 83/149/3
f 83/149/6 84/150/6 80/143/6 79/140/6
f 81/146/5 85/151/5 83/149/5 79/141/5
f 86/152/4 82/148/4 80/144/4 84/150/4
usemtl Material.1341
f 212/318/6 214/320/6 208/314/6 205/311/6
f 211/317/2 213/319/2 207/313/2 203/309/2
f 213/319/2 210/316/2 206/312/2 207/313/2
f 214/320/6 209/315/6 204/310/6 208/314/6
f 210/316/3 212/318/3 205/311/3 206/312/3
f 209/315/1 211/317/1 203/309/1 204/310/1
usemtl Material.1342
f 262/379/2 265/384/2 266/386/2 225/333/2
f 245/360/4 243/358/4 232/344/4 231/343/4
f 260/377/6 268/388/6 263/380/6 223/330/6
f 255/372/6 260/377/6 223/330/6 215/321/6
f 221/328/3 225/333/3 226/334/3 219/326/3
f 251/368/2 262/379/2 225/333/2 221/328/2
f 215/322/1 223/331/1 224/332/1 217/324/1
f 227/335/1 228/337/1 229/341/1 230/342/1
f 250/367/4 248/364/4 229/340/4 228/338/4
f 248/363/2 249/365/2 230/342/2 229/341/2
f 247/362/6 250/366/6 228/339/6 227/336/6
f 233/345/3 231/343/3 232/344/3 234/346/3
f 243/358/6 246/361/6 234/346/6 232/344/6
f 244/359/2 245/360/2 231/343/2 233/345/2
f 223/330/6 263/380/6 238/352/6 235/348/6
f 264/382/2 224/332/2 236/349/2 237/350/2
f 263/381/4 264/383/4 237/351/4 238/353/4
f 224/332/5 223/331/5 235/347/5 236/349/5
f 225/333/2 266/386/2 240/355/2 241/356/2
f 267/387/6 226/334/6 242/357/6 239/354/6
f 226/334/5 225/333/5 241/356/5 242/357/5
f 266/386/4 267/387/4 239/354/4 240/355/4
f 241/356/2 240/355/2 245/360/2 244/359/2
f 239/354/6 242/357/6 246/361/6 243/358/6
f 240/355/4 239/354/4 243/358/4 245/360/4
f 235/348/6 238/352/6 250/366/6 247/362/6
f 237/350/2 236/349/2 249/365/2 248/363/2
f 238/353/4 237/351/4 248/364/4 250/367/4
f 217/324/2 224/332/2 261/378/2 252/369/2
f 252/369/2 261/378/2 262/379/2 251/368/2
f 219/326/6 226/334/6 259/376/6 256/373/6
f 256/373/6 259/376/6 260/377/6 255/372/6
f 226/334/6 267/387/6 270/392/6 259/376/6
f 259/376/6 270/392/6 268/388/6 260/377/6
f 224/332/2 264/382/2 269/390/2 261/378/2
f 261/378/2 269/390/2 265/384/2 262/379/2
f 216/323/4 218/325/4 264/383/4 263/381/4
f 254/371/4 222/329/4 266/386/4 265/385/4
f 222/329/4 220/327/4 267/387/4 266/386/4
f 258/375/4 216/323/4 263/381/4 268/389/4
f 218/325/4 253/370/4 269/391/4 264/383/4
f 253/370/4 254/371/4 265/385/4 269/391/4
f 220/327/4 257/374/4 270/393/4 267/387/4
f 257/374/4 258/375/4 268/389/4 270/393/4
f 241/356/2 244/359/2 279/404/2 277/402/2
f 236/349/3 235/347/3 275/399/3 276/401/3
f 242/357/1 241/356/1 277/402/1 278/403/1
f 227/335/1 230/342/1 272/396/1 271/394/1
f 246/361/6 242/357/6 278/403/6 280/405/6
f 249/365/2 236/349/2 276/401/2 282/407/2
f 230/342/2 249/365/2 282/407/2 272/396/2
f 244/359/2 233/345/2 273/397/2 279/404/2
f 247/362/6 227/336/6 271/395/6 281/406/6
f 233/345/3 234/346/3 274/398/3 273/397/3
f 234/346/6 246/361/6 280/405/6 274/398/6
f 235/348/6 247/362/6 281/406/6 275/400/6
usemtl Material.1343
f 314/451/2 307/443/2 290/417/2 295/422/2
f 309/446/1 308/444/1 288/415/1 287/414/1
f 307/443/3 310/447/3 289/416/3 290/417/3
f 318/455/6 309/445/6 287/413/6 297/427/6
f 310/447/6 315/452/6 298/428/6 289/416/6
f 315/452/6 318/455/6 297/427/6 298/428/6
f 296/424/5 295/423/5 298/429/5 297/426/5
f 308/444/2 313/450/2 296/425/2 288/415/2
f 313/450/2 314/451/2 295/422/2 296/425/2
f 296/424/3 297/426/3 302/435/3 301/433/3
f 297/427/6 287/413/6 299/430/6 302/436/6
f 288/415/2 296/425/2 301/434/2 300/432/2
f 287/414/1 288/415/1 300/432/1 299/431/1
f 289/416/6 298/428/6 306/441/6 303/437/6
f 295/422/2 290/417/2 304/438/2 305/439/2
f 298/429/1 295/423/1 305/440/1 306/442/1
f 290/417/3 289/416/3 303/437/3 304/438/3
usemtl Material.1344
f 292/419/2 291/418/2 314/451/2 313/450/2
f 284/410/2 292/419/2 313/450/2 308/444/2
f 285/411/6 294/421/6 315/452/6 310/447/6
f 293/420/6 283/408/6 309/445/6 318/455/6
f 286/412/3 285/411/3 310/447/3 307/443/3
f 283/409/1 284/410/1 308/444/1 309/446/1
f 291/418/2 286/412/2 307/443/2 314/451/2
f 316/453/6 317/454/6 294/421/6 293/420/6
f 317/454/6 311/448/6 315/452/6 294/421/6
f 312/449/6 316/453/6 293/420/6 318/455/6
f 311/448/6 312/449/6 318/455/6 315/452/6
usemtl Material.1345
f 317/454/6 316/453/6 312/449/6 311/448/6
usemtl Material.1346
f 327/470/1 320/458/1 322/464/1 328/471/1
f 346/498/2 338/488/2 326/468/2 329/472/2
f 329/472/3 326/468/3 324/466/3 330/473/3
f 344/496/6 342/494/6 320/459/6 327/469/6
f 337/485/4 322/463/4 320/460/4 342/493/4
f 352/506/3 329/472/3 330/473/3 353/507/3
f 360/515/2 346/498/2 329/472/2 352/506/2
f 354/508/1 327/470/1 328/471/1 351/505/1
f 358/513/6 350/504/6 334/479/6 356/510/6
f 353/507/3 330/473/3 331/474/3 355/509/3
f 344/496/4 327/469/4 334/479/4 350/504/4
f 330/473/4 343/495/4 349/503/4 331/474/4
f 355/509/6 331/474/6 349/503/6 357/512/6
f 357/512/6 349/503/6 350/504/6 358/513/6
f 351/505/2 328/471/2 345/497/2 359/514/2
f 359/514/2 345/497/2 346/498/2 360/515/2
f 326/468/4 338/487/4 341/491/4 324/466/4
f 338/487/4 337/485/4 342/493/4 341/491/4
f 330/473/6 324/466/6 341/492/6 343/495/6
f 328/471/2 322/464/2 337/486/2 345/497/2
f 345/497/2 337/486/2 338/488/2 346/498/2
f 327/470/1 354/508/1 356/511/1 334/480/1
f 369/530/1 362/518/1 364/524/1 370/531/1
f 388/558/2 380/548/2 368/528/2 371/532/2
f 371/532/3 368/528/3 366/526/3 372/533/3
f 386/556/6 384/554/6 362/519/6 369/529/6
f 379/545/4 364/523/4 362/520/4 384/553/4
f 394/566/3 371/532/3 372/533/3 395/567/3
f 402/575/2 388/558/2 371/532/2 394/566/2
f 396/568/1 369/530/1 370/531/1 393/565/1
f 400/573/6 392/564/6 376/539/6 398/570/6
f 395/567/3 372/533/3 373/534/3 397/569/3
f 386/556/4 369/529/4 376/539/4 392/564/4
f 372/533/4 385/555/4 391/563/4 373/534/4
f 397/569/6 373/534/6 391/563/6 399/572/6
f 399/572/6 391/563/6 392/564/6 400/573/6
f 393/565/2 370/531/2 387/557/2 401/574/2
f 401/574/2 387/557/2 388/558/2 402/575/2
f 368/528/4 380/547/4 383/551/4 366/526/4
f 380/547/4 379/545/4 384/553/4 383/551/4
f 372/533/6 366/526/6 383/552/6 385/555/6
f 370/531/2 364/524/2 379/546/2 387/557/2
f 387/557/2 379/546/2 380/548/2 388/558/2
f 369/530/1 396/568/1 398/571/1 376/540/1
usemtl Material.1347
f 335/481/5 325/467/5 323/465/5 340/490/5
f 354/508/1 319/457/1 333/476/1 356/511/1
f 340/490/5 323/465/5 332/475/5 348/501/5
f 319/456/5 339/489/5 347/499/5 333/477/5
f 339/489/5 340/490/5 348/501/5 347/499/5
f 321/461/5 336/483/5 339/489/5 319/456/5
f 336/483/5 335/481/5 340/490/5 339/489/5
f 336/484/2 359/514/2 360/515/2 335/482/2
f 321/462/2 351/505/2 359/514/2 336/484/2
f 348/502/6 357/512/6 358/513/6 347/500/6
f 332/475/6 355/509/6 357/512/6 348/502/6
f 323/465/3 353/507/3 355/509/3 332/475/3
f 347/500/6 358/513/6 356/510/6 333/478/6
f 319/457/1 354/508/1 351/505/1 321/462/1
f 335/482/2 360/515/2 352/506/2 325/467/2
f 325/467/3 352/506/3 353/507/3 323/465/3
f 377/541/5 367/527/5 365/525/5 382/550/5
f 396/568/1 361/517/1 375/536/1 398/571/1
f 382/550/5 365/525/5 374/535/5 390/561/5
f 361/516/5 381/549/5 389/559/5 375/537/5
f 381/549/5 382/550/5 390/561/5 389/559/5
f 363/521/5 378/543/5 381/549/5 361/516/5
f 378/543/5 377/541/5 382/550/5 381/549/5
f 378/544/2 401/574/2 402/575/2 377/542/2
f 363/522/2 393/565/2 401/574/2 378/544/2
f 390/562/6 399/572/6 400/573/6 389/560/6
f 374/535/6 397/569/6 399/572/6 390/562/6
f 365/525/3 395/567/3 397/569/3 374/535/3
f 389/560/6 400/573/6 398/570/6 375/538/6
f 361/517/1 396/568/1 393/565/1 363/522/1
f 377/542/2 402/575/2 394/566/2 367/527/2
f 367/527/3 394/566/3 395/567/3 365/525/3
usemtl Material.1348
f 343/495/4 344/496/4 350/504/4 349/503/4
f 343/495/6 341/492/6 342/494/6 344/496/6
f 385/555/4 386/556/4 392/564/4 391/563/4
f 385/555/6 383/552/6 384/554/6 386/556/6
usemtl Material.1364
f 403/576/1 404/579/1 406/584/1 405/582/1
f 405/582/2 406/584/2 410/589/2 409/588/2
f 409/588/3 410/589/3 408/587/3 407/586/3
f 407/586/6 408/587/6 404/580/6 403/577/6
f 405/583/5 409/588/5 407/586/5 403/578/5
f 410/589/4 406/585/4 404/581/4 408/587/4
f 411/590/1 412/593/1 414/598/1 413/596/1
f 413/596/2 414/598/2 418/603/2 417/602/2
f 417/602/3 418/603/3 416/601/3 415/600/3
f 415/600/6 416/601/6 412/594/6 411/591/6
f 413/597/5 417/602/5 415/600/5 411/592/5
f 418/603/4 414/599/4 412/595/4 416/601/4
f 419/604/1 420/607/1 422/612/1 421/610/1
f 421/610/2 422/612/2 426/617/2 425/616/2
f 425/616/3 426/617/3 424/615/3 423/614/3
f 423/614/6 424/615/6 420/608/6 419/605/6
f 421/611/5 425/616/5 423/614/5 419/606/5
f 426/617/4 422/613/4 420/609/4 424/615/4
f 427/618/1 428/621/1 430/626/1 429/624/1
f 429/624/2 430/626/2 434/631/2 433/630/2
f 433/630/3 434/631/3 432/629/3 431/628/3
f 431/628/6 432/629/6 428/622/6 427/619/6
f 429/625/5 433/630/5 431/628/5 427/620/5
f 434/631/4 430/627/4 428/623/4 432/629/4
f 435/632/1 436/635/1 438/640/1 437/638/1
f 437/638/2 438/640/2 442/645/2 441/644/2
f 441/644/3 442/645/3 440/643/3 439/642/3
f 439/642/6 440/643/6 436/636/6 435/633/6
f 437/639/5 441/644/5 439/642/5 435/634/5
f 442/645/4 438/641/4 436/637/4 440/643/4
f 443/646/1 444/649/1 446/654/1 445/652/1
f 445/652/2 446/654/2 450/659/2 449/658/2
f 449/658/3 450/659/3 448/657/3 447/656/3
f 447/656/6 448/657/6 444/650/6 443/647/6
f 445/653/5 449/658/5 447/656/5 443/648/5
f 450/659/4 446/655/4 444/651/4 448/657/4
f 451/660/1 452/663/1 454/668/1 453/666/1
f 453/666/2 454/668/2 458/673/2 457/672/2
f 457/672/3 458/673/3 456/671/3 455/670/3
f 455/670/6 456/671/6 452/664/6 451/661/6
f 453/667/5 457/672/5 455/670/5 451/662/5
f 458/673/4 454/669/4 452/665/4 456/671/4
f 459/674/1 460/677/1 462/682/1 461/680/1
f 461/680/2 462/682/2 466/687/2 465/686/2
f 465/686/3 466/687/3 464/685/3 463/684/3
f 463/684/6 464/685/6 460/678/6 459/675/6
f 461/681/5 465/686/5 463/684/5 459/676/5
f 466/687/4 462/683/4 460/679/4 464/685/4
f 467/688/1 468/691/1 470/696/1 469/694/1
f 469/694/2 470/696/2 474/701/2 473/700/2
f 473/700/3 474/701/3 472/699/3 471/698/3
f 471/698/6 472/699/6 468/692/6 467/689/6
f 469/695/5 473/700/5 471/698/5 467/690/5
f 474/701/4 470/697/4 468/693/4 472/699/4
s 1
usemtl Material.1375
f 475/702/9 476/705/10 478/710/11 477/708/12
f 477/708/12 478/710/11 480/714/13 479/712/14
f 479/712/14 480/714/13 482/718/15 481/716/16
f 481/716/16 482/718/15 484/722/17 483/720/18
f 483/720/18 484/722/17 486/726/19 485/724/20
f 485/724/20 486/726/19 488/730/21 487/728/22
f 487/728/22 488/730/21 490/734/23 489/732/24
f 489/732/24 490/734/23 492/738/25 491/736/26
f 491/736/26 492/738/25 494/742/27 493/740/28
f 493/740/28 494/742/27 496/746/29 495/744/30
f 495/744/30 496/746/29 498/750/31 497/748/32
f 497/748/32 498/750/31 500/754/33 499/752/34
f 499/752/34 500/754/33 502/758/35 501/756/36
f 501/756/36 502/758/35 504/762/37 503/760/38
f 503/760/38 504/762/37 506/766/39 505/764/40
f 505/764/40 506/766/39 508/770/41 507/768/42
f 507/768/42 508/770/41 510/774/43 509/772/44
f 509/772/44 510/774/43 512/778/45 511/776/46
f 511/776/46 512/778/45 514/782/47 513/780/48
f 513/780/48 514/782/47 516/786/49 515/784/50
f 515/784/50 516/786/49 518/790/51 517/788/52
f 517/788/52 518/790/51 520/794/53 519/792/54
f 519/792/54 520/794/53 522/798/55 521/796/56
f 521/796/56 522/798/55 524/802/57 523/800/58
f 523/800/58 524/802/57 526/806/59 525/804/60
f 525/804/60 526/806/59 528/810/61 527/808/62
f 527/808/62 528/810/61 530/814/63 529/812/64
f 529/812/64 530/814/63 532/818/65 531/816/66
f 531/816/66 532/818/65 534/822/67 533/820/68
f 533/820/68 534/822/67 536/827/69 535/824/70
f 478/711/71 476/706/71 538/830/71 536/826/71 534/823/71 532/819/71 530/815/71 528/811/71 526/807/71 524/803/71 522/799/71 520/795/71 518/791/71 516/787/71 514/783/71 512/779/71 510/775/71 508/771/71 506/767/71 504/763/71 502/759/71 500/755/71 498/751/71 496/747/71 494/743/71 492/739/71 490/735/71 488/731/71 486/727/71 484/723/71 482/719/71 480/715/71
f 535/824/70 536/827/69 538/831/72 537/828/73
f 537/828/73 538/831/72 476/707/10 475/703/9
f 475/704/74 477/709/74 479/713/74 481/717/74 483/721/74 485/725/74 487/729/74 489/733/74 491/737/74 493/741/74 495/745/74 497/749/74 499/753/74 501/757/74 503/761/74 505/765/74 507/769/74 509/773/74 511/777/74 513/781/74 515/785/74 517/789/74 519/793/74 521/797/74 523/801/74 525/805/74 527/809/74 529/813/74 531/817/74 533/821/74 535/825/74 537/829/74
f 539/832/9 540/835/10 542/840/11 541/838/12
f 541/838/12 542/840/11 544/844/13 543/842/14
f 543/842/14 544/844/13 546/848/15 545/846/16
f 545/846/16 546/848/15 548/852/17 547/850/18
f 547/850/18 548/852/17 550/856/19 549/854/20
f 549/854/20 550/856/19 552/860/75 551/858/22
f 551/858/22 552/860/75 554/864/23 553/862/24
f 553/862/24 554/864/23 556/868/25 555/866/26
f 555/866/26 556/868/25 558/872/27 557/870/28
f 557/870/28 558/872/27 560/876/29 559/874/30
f 559/874/30 560/876/29 562/880/31 561/878/32
f 561/878/32 562/880/31 564/884/76 563/882/34
f 563/882/34 564/884/76 566/888/35 565/886/36
f 565/886/36 566/888/35 568/892/37 567/890/38
f 567/890/38 568/892/37 570/896/39 569/894/40
f 569/894/40 570/896/39 572/900/41 571/898/42
f 571/898/42 572/900/41 574/904/43 573/902/44
f 573/902/44 574/904/43 576/908/45 575/906/46
f 575/906/46 576/908/45 578/912/47 577/910/48
f 577/910/48 578/912/47 580/916/49 579/914/50
f 579/914/50 580/916/49 582/920/51 581/918/52
f 581/918/52 582/920/51 584/924/53 583/922/77
f 583/922/77 584/924/53 586/928/55 585/926/56
f 585/926/56 586/928/55 588/932/57 587/930/58
f 587/930/58 588/932/57 590/936/59 589/934/60
f 589/934/60 590/936/59 592/940/61 591/938/62
f 591/938/62 592/940/61 594/944/63 593/942/64
f 593/942/64 594/944/63 596/948/65 595/946/66
f 595/946/66 596/948/65 598/952/78 597/950/68
f 597/950/68 598/952/78 600/957/69 599/954/70
f 542/841/71 540/836/71 602/960/71 600/956/71 598/953/71 596/949/71 594/945/71 592/941/71 590/937/71 588/933/71 586/929/71 584/925/71 582/921/71 580/917/71 578/913/71 576/909/71 574/905/71 572/901/71 570/897/71 568/893/71 566/889/71 564/885/71 562/881/71 560/877/71 558/873/71 556/869/71 554/865/71 552/861/71 550/857/71 548/853/71 546/849/71 544/845/71
f 599/954/70 600/957/69 602/961/72 601/958/73
f 601/958/73 602/961/72 540/837/10 539/833/9
f 539/834/74 541/839/74 543/843/74 545/847/74 547/851/74 549/855/74 551/859/74 553/863/74 555/867/74 557/871/74 559/875/74 561/879/74 563/883/74 565/887/74 567/891/74 569/895/74 571/899/74 573/903/74 575/907/74 577/911/74 579/915/74 581/919/74 583/923/74 585/927/74 587/931/74 589/935/74 591/939/74 593/943/74 595/947/74 597/951/74 599/955/74 601/959/74
